<svg width="61" height="61" viewBox="0 0 61 61" fill="none" xmlns="http://www.w3.org/2000/svg">
<g filter="url(#filter0_d_17:270)">
<circle cx="30.5" cy="30.5" r="22.5" fill="#2B354D"/>
</g>
<path d="M34.5 27C35.7426 27 36.75 25.9926 36.75 24.75C36.75 23.5074 35.7426 22.5 34.5 22.5C33.2574 22.5 32.25 23.5074 32.25 24.75C32.25 25.9926 33.2574 27 34.5 27Z" stroke="white" stroke-width="1.5" stroke-linecap="round" stroke-linejoin="round"/>
<path d="M25.5 32.25C26.7426 32.25 27.75 31.2426 27.75 30C27.75 28.7574 26.7426 27.75 25.5 27.75C24.2574 27.75 23.25 28.7574 23.25 30C23.25 31.2426 24.2574 32.25 25.5 32.25Z" stroke="white" stroke-width="1.5" stroke-linecap="round" stroke-linejoin="round"/>
<path d="M34.5 37.5C35.7426 37.5 36.75 36.4926 36.75 35.25C36.75 34.0074 35.7426 33 34.5 33C33.2574 33 32.25 34.0074 32.25 35.25C32.25 36.4926 33.2574 37.5 34.5 37.5Z" stroke="white" stroke-width="1.5" stroke-linecap="round" stroke-linejoin="round"/>
<path d="M27.4425 31.1325L32.565 34.1175" stroke="white" stroke-width="1.5" stroke-linecap="round" stroke-linejoin="round"/>
<path d="M32.5575 25.8825L27.4425 28.8675" stroke="white" stroke-width="1.5" stroke-linecap="round" stroke-linejoin="round"/>
<defs>
<filter id="filter0_d_17:270" x="0" y="0" width="61" height="61" filterUnits="userSpaceOnUse" color-interpolation-filters="sRGB">
<feFlood flood-opacity="0" result="BackgroundImageFix"/>
<feColorMatrix in="SourceAlpha" type="matrix" values="0 0 0 0 0 0 0 0 0 0 0 0 0 0 0 0 0 0 127 0" result="hardAlpha"/>
<feOffset/>
<feGaussianBlur stdDeviation="4"/>
<feComposite in2="hardAlpha" operator="out"/>
<feColorMatrix type="matrix" values="0 0 0 0 0.419608 0 0 0 0 0.498039 0 0 0 0 0.92549 0 0 0 0.2 0"/>
<feBlend mode="normal" in2="BackgroundImageFix" result="effect1_dropShadow_17:270"/>
<feBlend mode="normal" in="SourceGraphic" in2="effect1_dropShadow_17:270" result="shape"/>
</filter>
</defs>
</svg>
